<?xml version="1.0" encoding="UTF-8"?>
<svg width="192px" height="192px" viewBox="0 0 192 192" version="1.1" xmlns="http://www.w3.org/2000/svg" xmlns:xlink="http://www.w3.org/1999/xlink">
    <!-- Generator: Sketch 46.2 (44496) - http://www.bohemiancoding.com/sketch -->
    <title>circle-blue</title>
    <desc>Created with Sketch.</desc>
    <defs>
        <linearGradient x1="50%" y1="0%" x2="50%" y2="100%" id="linearGradient-1">
            <stop stop-color="#377BFF" offset="0%"></stop>
            <stop stop-color="#4EB9FE" offset="100%"></stop>
        </linearGradient>
    </defs>
    <g id="Style-Guide" stroke="none" stroke-width="1" fill="none" fill-rule="evenodd">
        <g id="Style-guide/imagery" transform="translate(-179.000000, -1090.000000)" fill="url(#linearGradient-1)">
            <path d="M275,1282 C221.980664,1282 179,1239.01934 179,1186 C179,1132.98066 221.980664,1090 275,1090 C328.019336,1090 371,1132.98066 371,1186 C371,1239.01934 328.019336,1282 275,1282 Z M274.5,1271 C321.720346,1271 360,1232.72035 360,1185.5 C360,1138.27965 321.720346,1100 274.5,1100 C227.279654,1100 189,1138.27965 189,1185.5 C189,1232.72035 227.279654,1271 274.5,1271 Z" id="circle-blue"></path>
        </g>
    </g>
</svg>