<?xml version="1.0" encoding="UTF-8"?>
<svg width="192px" height="192px" viewBox="0 0 192 192" version="1.1" xmlns="http://www.w3.org/2000/svg" xmlns:xlink="http://www.w3.org/1999/xlink">
    <!-- Generator: Sketch 46.2 (44496) - http://www.bohemiancoding.com/sketch -->
    <title>circle-purple</title>
    <desc>Created with Sketch.</desc>
    <defs>
        <linearGradient x1="69.3057597%" y1="100%" x2="69.305761%" y2="0%" id="linearGradient-1">
            <stop stop-color="#D562FF" offset="0%"></stop>
            <stop stop-color="#4E55FE" offset="100%"></stop>
        </linearGradient>
    </defs>
    <g id="Style-Guide" stroke="none" stroke-width="1" fill="none" fill-rule="evenodd">
        <g id="Style-guide/imagery" transform="translate(-655.000000, -1090.000000)" fill="url(#linearGradient-1)">
            <path d="M751,1282 C697.980664,1282 655,1239.01934 655,1186 C655,1132.98066 697.980664,1090 751,1090 C804.019336,1090 847,1132.98066 847,1186 C847,1239.01934 804.019336,1282 751,1282 Z M750.5,1271 C797.720346,1271 836,1232.72035 836,1185.5 C836,1138.27965 797.720346,1100 750.5,1100 C703.279654,1100 665,1138.27965 665,1185.5 C665,1232.72035 703.279654,1271 750.5,1271 Z" id="circle-purple"></path>
        </g>
    </g>
</svg>