<?xml version="1.0" encoding="UTF-8"?>
<svg width="312px" height="312px" viewBox="0 0 312 312" version="1.1" xmlns="http://www.w3.org/2000/svg" xmlns:xlink="http://www.w3.org/1999/xlink">
    <!-- Generator: Sketch 45.1 (43504) - http://www.bohemiancoding.com/sketch -->
    <title>IMG-explicacion-2</title>
    <desc>Created with Sketch.</desc>
    <defs></defs>
    <g id="Assets" stroke="none" stroke-width="1" fill="none" fill-rule="evenodd">
        <g transform="translate(-422.000000, -393.000000)" id="Group-13">
            <g transform="translate(422.000000, 393.000000)">
                <g id="Group-5" transform="translate(22.000000, 91.000000)">
                    <g id="Group">
                        <ellipse id="Oval-6-Copy-2" fill="#5A5A5A" cx="36.6580311" cy="134.933333" rx="19.0621762" ry="19.0666667"></ellipse>
                        <rect id="Rectangle-26" fill="#D6DCE4" x="0" y="0" width="193.554404" height="134.933333"></rect>
                        <rect id="Rectangle-26" fill="#868C99" x="11.7305699" y="8.8" width="170.093264" height="118.8"></rect>
                        <path d="M19.1589228,127.6 C18.7543671,124.406931 18.5458659,121.152703 18.5458659,117.849765 C18.5458659,75.4436309 52.9147337,41.0666667 95.3108808,41.0666667 C137.707028,41.0666667 172.075896,75.4436309 172.075896,117.849765 C172.075896,121.152703 171.867395,124.406931 171.462839,127.6 L19.1589228,127.6 Z" id="Combined-Shape" fill="#E4E8ED" opacity="0.200000003"></path>
                        <g id="Group-2-Copy" transform="translate(24.927461, 48.400000)">
                            <path d="M25.6606218,76.2666667 C11.4886517,76.2666667 0,64.4469841 0,49.8666667 C0,35.2863493 11.4886517,23.4666667 25.6606218,23.4666667 C39.8325918,23.4666667 51.3212435,35.2863493 51.3212435,49.8666667 C51.3212435,64.4469841 39.8325918,76.2666667 25.6606218,76.2666667 Z M25.6606218,71.9564626 C37.5188008,71.9564626 47.1317543,62.0665241 47.1317543,49.8666667 C47.1317543,37.6668093 37.5188008,27.7768707 25.6606218,27.7768707 C13.8024427,27.7768707 4.18948927,37.6668093 4.18948927,49.8666667 C4.18948927,62.0665241 13.8024427,71.9564626 25.6606218,71.9564626 Z" id="Combined-Shape" fill="#5A5A5A"></path>
                            <path d="M118.03886,76.2666667 C103.86689,76.2666667 92.3782383,64.4469841 92.3782383,49.8666667 C92.3782383,35.2863493 103.86689,23.4666667 118.03886,23.4666667 C132.21083,23.4666667 143.699482,35.2863493 143.699482,49.8666667 C143.699482,64.4469841 132.21083,76.2666667 118.03886,76.2666667 Z M118.03886,71.9564626 C129.897039,71.9564626 139.509993,62.0665241 139.509993,49.8666667 C139.509993,37.6668093 129.897039,27.7768707 118.03886,27.7768707 C106.180681,27.7768707 96.5677276,37.6668093 96.5677276,49.8666667 C96.5677276,62.0665241 106.180681,71.9564626 118.03886,71.9564626 Z" id="Combined-Shape-Copy" fill="#5A5A5A"></path>
                            <path d="M45.5035904,9.5096185 L89.1517857,9.5096185 L91.1333773,3.96960631 C91.3830885,3.27147919 92.1590736,2.90528023 92.8665885,3.15167803 C93.5741035,3.39807584 93.9452268,4.16376458 93.6955156,4.8618917 L91.6671326,10.5327203 L118.531992,49.2349788 C119.149505,50.1245855 118.503946,51.332968 117.411174,51.332968 L76.1438276,51.332968 C76.1228185,51.3334539 76.1017512,51.3334563 76.0806413,51.332968 L74.4820115,51.332968 C74.0636894,51.332968 73.6686939,51.1428026 73.411244,50.817461 L43.8781897,13.4962908 L29.0130113,49.9565891 C28.7329821,50.6434255 27.9416955,50.97622 27.2456231,50.6999065 C26.5495507,50.423593 26.212281,49.6428058 26.4923102,48.9559694 L44.7610486,4.14765061 L29.6986925,4.14765061 C28.3594535,7.2605102 29.2401125,9.03268494 32.5295187,10.1146049 C33.241305,10.3487188 33.6259829,11.1078662 33.3887208,11.810208 C33.1514587,12.5125498 32.3821029,12.8921235 31.6703166,12.6580096 C26.5181643,10.963413 25.0879526,7.2095981 27.6155349,2.20888413 C27.8454125,1.75408102 28.3161803,1.46666667 28.8312434,1.46666667 L46.7719099,1.46666667 C47.7341626,1.46666667 48.3914006,2.42659393 48.0322605,3.30746846 L45.5035904,9.5096185 Z M88.1928319,12.1906024 L46.2921622,12.1906024 L75.1448471,48.6519841 L75.151061,48.6519841 L88.1928319,12.1906024 Z M90.5472207,13.6637012 L78.0323584,48.6519841 L114.834054,48.6519841 L90.5472207,13.6637012 Z" id="Combined-Shape" fill="#FFFFFF" fill-rule="nonzero"></path>
                            <ellipse id="Oval-2" fill="#D6DCE4" cx="74.0492228" cy="49.8666667" rx="6.5984456" ry="5.86666667"></ellipse>
                            <ellipse id="Oval-3" fill="#FFFFFF" cx="74.7823834" cy="49.8666667" rx="2.93264249" ry="2.93333333"></ellipse>
                            <ellipse id="Oval-3-Copy" fill="#D6DCE4" cx="115.839378" cy="51.3333333" rx="2.93264249" ry="2.93333333"></ellipse>
                            <rect id="Rectangle-2" fill="#FFD382" x="32.2590674" y="0" width="8.79792746" height="4.4" rx="2.2"></rect>
                            <rect id="Rectangle-2-Copy" fill="#ECD1B5" x="80.6476684" y="0" width="17.5958549" height="4.4" rx="2.2"></rect>
                        </g>
                        <path d="M192,24 L226.05048,24 L226.05048,24 C229.026639,24 231.756789,25.6521213 233.137492,28.2886301 L251.680563,63.6973771 L251.680563,63.6973771 C252.71609,65.6747587 254.763702,66.9138497 256.995821,66.9138497 L278.257868,66.9138497 L278.257868,66.9138497 C280.467007,66.9138497 282.257868,68.7047107 282.257868,70.9138497 L282.257868,131.327439 L282.257868,131.327439 C282.257868,133.536578 280.467007,135.327439 278.257868,135.327439 L192,135.327439 L192,24 Z" id="Path-7" fill="#D6DCE4"></path>
                        <ellipse id="Oval-6" fill="#5A5A5A" cx="233.145078" cy="134.933333" rx="19.0621762" ry="19.0666667"></ellipse>
                        <path d="M198,34 L198,66.2459874 L198,66.2459874 C198,67.9028417 199.343146,69.2459874 201,69.2459874 L237.142437,69.2459874 L237.142437,69.2459874 C238.799291,69.2459874 240.142437,67.9028417 240.142437,66.2459874 C240.142437,65.7815423 240.034601,65.3234398 239.827424,64.9077634 L224.860034,34.8774773 L224.860034,34.8774773 C223.675878,32.5016085 221.249678,31 218.595064,31 L201,31 L201,31 C199.343146,31 198,32.3431458 198,34 Z" id="Path-10" fill="#82CDFF"></path>
                        <g id="Group-9" transform="translate(166.000000, 35.000000)">
                            <path d="M1.94606653,18.3016866 L4.53327653,16.2617475 C4.87823786,11.1618998 5.91312186,8.27198605 7.63792853,7.59200635 C10.2251385,6.5720368 15.9170005,10.651915 13.3297905,15.241778 C11.6049839,18.3016866 9.36273519,19.661646 6.60304453,19.3216562 L2.46350853,21.87158 L1.94606653,18.3016866 Z" id="Path-18-Copy" fill="#FFD382" transform="translate(7.967343, 14.652830) rotate(-93.000000) translate(-7.967343, -14.652830) "></path>
                            <path d="M43.3531915,16.84375 C29.7049645,19.25 20.070922,18.046875 14.4510638,13.234375 L7.22553191,25.265625 C23.2822695,31.6822917 34.9234043,34.890625 42.1489362,34.890625 C49.3744681,34.890625 59.0085106,34.890625 71.0510638,34.890625 C69.4453901,30.8802083 67.4535729,28.5534979 65.0756123,27.9104936 C66.2340426,19.25 62.0732371,16.2962249 60.212766,14.4375 L43.3531915,16.84375 Z" id="Path-23" fill="#FFFFFF"></path>
                            <ellipse id="Oval-9-Copy" fill="#FFD382" cx="52.3851064" cy="13.8359375" rx="9.03191489" ry="11.4296875"></ellipse>
                            <polygon id="Path-22" fill="#E95077" points="44.5574468 7.21875 37.3319149 3.609375 38.5361702 2.40625 46.9659574 4.8125"></polygon>
                            <path d="M44.5574468,7.0984375 L61.4170213,15.640625 C63.8255319,8.421875 62.6212766,3.609375 57.8042553,1.203125 C52.987234,-1.203125 48.5716312,0.761979167 44.5574468,7.0984375 Z" id="Path-11" fill="#E95077"></path>
                        </g>
                    </g>
                </g>
                <rect id="Rectangle-28" fill="#868C99" x="4" y="245" width="297" height="5" rx="2.5"></rect>
                <g id="Group-10" transform="translate(9.000000, 127.000000)">
                    <path d="M10,68 L19.2605263,115 L28.1578947,115 C29.8461805,102.268937 31.0567068,93.0296212 31.7894737,87.2820513 C32.5222406,81.5344814 32.9257493,75.107131 33,68 L10,68 Z" id="Path-14-Copy" fill="#606878"></path>
                    <path d="M0,68 L9.26052632,115 L18.1578947,115 C19.8461805,102.268937 21.0567068,93.0296212 21.7894737,87.2820513 C22.5222406,81.5344814 22.9257493,75.107131 23,68 L0,68 Z" id="Path-14" fill="#525763"></path>
                    <path d="M43,14.2910198 L45.5780679,12.1716026 C45.9218103,6.87305946 46.9530375,3.8705517 48.6717494,3.16407928 C51.2498173,2.10437066 56.9215667,6.34320515 54.3434988,11.111894 C52.6247869,14.2910198 50.3904613,15.7039647 47.6405222,15.3507284 L43.5156136,18 L43,14.2910198 Z" id="Path-18" fill="#FFD382" transform="translate(49.000000, 10.500000) rotate(-18.000000) translate(-49.000000, -10.500000) "></path>
                    <path d="M23,30.8571429 C32.2727273,27.7578231 39.9636364,20.4721088 46.0727273,9 L50,18.7142857 C46.7818182,30.2442177 39.8272727,38.3394558 29.1363636,43 L23,30.8571429 Z" id="Path-17" fill="#749CEA"></path>
                    <path d="M0.136714861,69.7266777 C3.72237005,72.5755592 9.17679843,74 16.5,74 C23.8232016,74 29.3080082,72.5755592 32.9544199,69.7266777 C33.319061,50.1406171 31.4958552,37.142595 27.4848024,30.7326116 C24.465281,25.9071748 12.9384435,24.6004269 6.70025586,33.9376033 C0.462068242,43.2747797 -0.408204756,63.074541 0.136714861,69.7266777 Z" id="Path-13" fill="#90B6FF"></path>
                    <path d="M1,72.4339623 C2.84615385,76.0314465 5.61538462,77.5031447 9.30769231,76.8490566 C13,76.1949686 13.9230769,73.5786164 12.0769231,69 L1,72.4339623 Z" id="Path-16" fill="#FFD382"></path>
                    <path d="M9.68680482,29 C7.46853156,29 5.83401443,27.8017402 4.78325342,25.4052206 C3.2071119,21.8104413 4.15027522,14.6249904 6.35939494,11.0261031 C7.87743021,8.55306474 12.1946166,7.50784256 15.8162441,5.03480417 C19.4378715,2.56176578 18.6182734,-0.956494786 23.5218248,0.241765005 C28.4253762,1.4400248 24.7477127,12.2243629 23.5218248,19.4139217 C22.7045663,24.2069608 18.0928929,27.4023203 9.68680482,29 Z" id="Path-21" fill="#FF7F58"></path>
                    <ellipse id="Oval" fill="#FFD382" cx="8" cy="21" rx="2" ry="3"></ellipse>
                    <ellipse id="Oval-9" fill="#FFD382" cx="16" cy="21.5" rx="9" ry="11.5"></ellipse>
                    <path d="M7.2,33 C0.8,46.4891775 -1.33333333,60.1558442 0.8,74 L12,69.7402597 C10.5777778,57.6709957 10.2222222,49.3290043 10.9333333,44.7142857" id="Path-15" fill="#90B6FF"></path>
                    <path d="M19,114.25 C29.4,111.75 35.4,113 37,118 L19,118 L19,114.25 Z" id="Path-20" fill="#D9A673"></path>
                    <path d="M10,114.25 C20.4,111.75 26.4,113 28,118 L10,118 L10,114.25 Z" id="Path-20-Copy" fill="#D9A673"></path>
                </g>
                <polygon id="Path-19" fill="#525763" points="12 211 22 210 20 214 16 215"></polygon>
            </g>
        </g>
    </g>
</svg>