<?xml version="1.0" encoding="UTF-8"?>
<svg width="312px" height="312px" viewBox="0 0 312 312" version="1.1" xmlns="http://www.w3.org/2000/svg" xmlns:xlink="http://www.w3.org/1999/xlink">
    <!-- Generator: Sketch 45.1 (43504) - http://www.bohemiancoding.com/sketch -->
    <title>IMG-explicacion-1</title>
    <desc>Created with Sketch.</desc>
    <defs>
        <rect id="path-1" x="0" y="0" width="166" height="174" rx="5"></rect>
    </defs>
    <g id="Assets" stroke="none" stroke-width="1" fill="none" fill-rule="evenodd">
        <g transform="translate(-54.000000, -393.000000)" id="Group-10-Copy">
            <g transform="translate(210.000000, 549.000000) scale(-1, 1) translate(-210.000000, -549.000000) translate(54.000000, 393.000000)">
                <path d="M61,195 L70.2605263,242 L79.1578947,242 C80.8461805,229.268937 82.0567068,220.029621 82.7894737,214.282051 C83.5222406,208.534481 83.9257493,202.107131 84,195 L61,195 Z" id="Path-14-Copy" fill="#606878"></path>
                <path d="M51,195 L60.2605263,242 L69.1578947,242 C70.8461805,229.268937 72.0567068,220.029621 72.7894737,214.282051 C73.5222406,208.534481 73.9257493,202.107131 74,195 L51,195 Z" id="Path-14" fill="#525763"></path>
                <path d="M94.3320656,144.778046 L96.9101335,142.658628 C97.2538759,137.360085 98.285103,134.357578 100.003815,133.651105 C102.581883,132.591396 108.253632,136.830231 105.675564,141.59892 C103.956852,144.778046 101.722527,146.19099 98.9725878,145.837754 L94.8476791,148.487026 L94.3320656,144.778046 Z" id="Path-18" fill="#FFD382" transform="translate(100.332066, 140.987026) rotate(-18.000000) translate(-100.332066, -140.987026) "></path>
                <path d="M74,157.857143 C83.2727273,154.757823 90.9636364,147.472109 97.0727273,136 L101,145.714286 C97.7818182,157.244218 90.8272727,165.339456 80.1363636,170 L74,157.857143 Z" id="Path-17" fill="#749CEA"></path>
                <path d="M51.1367149,196.726678 C54.7223701,199.575559 60.1767984,201 67.5,201 C74.8232016,201 80.3080082,199.575559 83.9544199,196.726678 C84.319061,177.140617 82.4958552,164.142595 78.4848024,157.732612 C75.465281,152.907175 63.9384435,151.600427 57.7002559,160.937603 C51.4620682,170.27478 50.5917952,190.074541 51.1367149,196.726678 Z" id="Path-13" fill="#90B6FF"></path>
                <g id="Group-4-Copy-8" transform="translate(169.000000, 144.000000) scale(-1, 1) translate(-169.000000, -144.000000) translate(86.000000, 57.000000)">
                    <g id="Rectangle">
                        <use fill="#FFFFFF" fill-rule="evenodd" xlink:href="#path-1"></use>
                        <rect stroke="#E8EBF0" stroke-width="3" x="1.5" y="1.5" width="163" height="171" rx="5"></rect>
                    </g>
                    <g id="Group-3" transform="translate(85.000000, 135.000000)">
                        <rect id="Rectangle-25" fill="#E8EBF0" opacity="0.374603714" x="0" y="0" width="72" height="29"></rect>
                        <rect id="Rectangle-23-Copy-2" fill="#D6DCE4" x="21.4736842" y="8.28571429" width="45.4736842" height="4.97142857" rx="2.48571429"></rect>
                        <rect id="Rectangle-23-Copy-3" fill="#D6DCE4" x="21.4736842" y="15.7428571" width="24" height="4.97142857" rx="2.48571429"></rect>
                        <path d="M8.59918312,6.75452956 C8.59918312,6.15935181 9.07893088,5.68731429 9.68383022,5.68731429 C10.2887296,5.68731429 10.7684773,6.15935181 10.7684773,6.75452956 L10.7684773,7.04185675 C11.8948416,7.20604371 12.8960543,7.53441764 13.792974,8.02697854 C14.1892874,8.25273562 14.5438836,8.64267966 14.5438836,9.25838078 C14.5438836,10.0382689 13.9181256,10.6334466 13.1254989,10.6334466 C12.8751957,10.6334466 12.6248926,10.5718765 12.395448,10.4487363 C11.8114072,10.1408857 11.2273665,9.89460527 10.6641843,9.75094167 L10.6641843,12.870494 C13.8346912,13.7119522 15.1905001,14.9844012 15.1905001,17.2830187 C15.1905001,19.5816362 13.3966607,21.0593189 10.7684773,21.3466461 L10.7684773,22.4343847 C10.7684773,23.0295625 10.2887296,23.5016 9.68383022,23.5016 C9.07893088,23.5016 8.59918312,23.0295625 8.59918312,22.4343847 L8.59918312,21.3261227 C7.11822265,21.1414124 5.72069658,20.6283281 4.49003929,19.8894868 C4.05200873,19.6226829 3.78084696,19.2122155 3.78084696,18.6580845 C3.78084696,17.8576731 4.4066049,17.2624953 5.22009023,17.2624953 C5.491252,17.2624953 5.78327237,17.3651122 6.03357555,17.5292991 C6.90963667,18.0834302 7.7439806,18.4733742 8.70347611,18.6786079 L8.70347611,15.415392 C5.69983798,14.6149805 4.21887752,13.4861951 4.21887752,11.043914 C4.21887752,8.78634325 5.97099976,7.26761382 8.59918312,7.00081001 L8.59918312,6.75452956 Z M12.1451448,17.4472057 C12.1451448,16.7699344 11.7905486,16.3184203 10.6641843,15.9284762 L10.6641843,18.7812248 C11.6445384,18.6375612 12.1451448,18.186047 12.1451448,17.4472057 Z M7.26423284,10.8592037 C7.26423284,11.4954282 7.55625321,11.926419 8.70347611,12.3368864 L8.70347611,9.56623134 C7.7022634,9.70989493 7.26423284,10.2024558 7.26423284,10.8592037 Z" id="$" fill="#868C99"></path>
                    </g>
                    <rect id="Rectangle-23" fill="#D6DCE4" x="13" y="109" width="103" height="6" rx="3"></rect>
                    <rect id="Rectangle-23-Copy" fill="#D6DCE4" x="25" y="120" width="45" height="6" rx="3"></rect>
                    <circle id="Oval-5" fill="#FFD382" cx="17.5" cy="122.5" r="4.5"></circle>
                    <rect id="Rectangle-24" fill="#82CDFF" x="13" y="13" width="141" height="90"></rect>
                    <path d="M83.3669177,60 C130.455639,65.1470588 154,79.1470588 154,102 L83,102 L83.3669177,60 Z" id="Path-5-Copy" fill="#3FBE82" transform="translate(118.500000, 81.000000) scale(-1, 1) translate(-118.500000, -81.000000) "></path>
                    <path d="M13,46 C67,52.7555556 94,71.7555556 94,103 L13,103 L13,46 Z" id="Path-5" fill="#44D791"></path>
                    <g id="Group-2" transform="translate(20.000000, 34.000000)">
                        <path d="M23.2325581,67 C10.4015706,67 0,56.5948178 0,43.759375 C0,30.9239322 10.4015706,20.51875 23.2325581,20.51875 C36.0635457,20.51875 46.4651163,30.9239322 46.4651163,43.759375 C46.4651163,56.5948178 36.0635457,67 23.2325581,67 Z M23.2325581,63.2056122 C33.9686906,63.2056122 42.6720456,54.4992353 42.6720456,43.759375 C42.6720456,33.0195147 33.9686906,24.3131378 23.2325581,24.3131378 C12.4964257,24.3131378 3.79307072,33.0195147 3.79307072,43.759375 C3.79307072,54.4992353 12.4964257,63.2056122 23.2325581,63.2056122 Z" id="Combined-Shape" fill="#5A5A5A"></path>
                        <path d="M102.767442,67 C89.9364543,67 79.5348837,56.5948178 79.5348837,43.759375 C79.5348837,30.9239322 89.9364543,20.51875 102.767442,20.51875 C115.598429,20.51875 126,30.9239322 126,43.759375 C126,56.5948178 115.598429,67 102.767442,67 Z M102.767442,63.2056122 C113.503574,63.2056122 122.206929,54.4992353 122.206929,43.759375 C122.206929,33.0195147 113.503574,24.3131378 102.767442,24.3131378 C92.0313094,24.3131378 83.3279544,33.0195147 83.3279544,43.759375 C83.3279544,54.4992353 92.0313094,63.2056122 102.767442,63.2056122 Z" id="Combined-Shape-Copy" fill="#5A5A5A"></path>
                        <path d="M39.3174046,8.41547174 L77.4905524,8.41547174 L79.2235815,3.4841758 C79.44197,2.86275633 80.1206187,2.53679397 80.7393859,2.75611849 C81.3581532,2.97544301 81.6827243,3.65700067 81.4643359,4.27842014 L79.6903848,9.32615884 L103.185428,43.7759549 C103.725483,44.567815 103.1609,45.6434248 102.205201,45.6434248 L66.1142584,45.6434248 C66.0958845,45.6438573 66.0774598,45.6438595 66.0589978,45.6434248 L64.6608935,45.6434248 C64.295044,45.6434248 63.9495951,45.4741541 63.7244387,45.1845599 L37.8958874,11.9641031 L24.8953349,44.4182774 C24.6504315,45.0296467 23.9584005,45.325875 23.3496406,45.0799218 C22.7408806,44.8339686 22.4459166,44.1389714 22.69082,43.5276021 L38.6680041,3.64265725 L25.4950071,3.64265725 C24.3237567,6.41348723 25.0939495,7.9909419 27.9707463,8.95398447 C28.5932492,9.16237482 28.9296747,9.83810987 28.7221737,10.4632809 C28.5146728,11.088452 27.8418218,11.4263195 27.219319,11.2179292 C22.7134311,9.70952866 21.4626193,6.36816917 23.6731521,1.91691532 C23.8741949,1.51208432 24.2859115,1.25625 24.7363672,1.25625 L40.4266314,1.25625 C41.2681832,1.25625 41.84298,2.11070397 41.5288889,2.89479124 L39.3174046,8.41547174 Z M76.6518859,10.801879 L40.0070613,10.801879 L65.2405858,43.2570176 L65.2460203,43.2570176 L76.6518859,10.801879 Z M78.7109499,12.113119 L67.7658998,43.2570176 L99.9513441,43.2570176 L78.7109499,12.113119 Z" id="Combined-Shape" fill="#FFFFFF" fill-rule="nonzero"></path>
                        <ellipse id="Oval-2" fill="#D6DCE4" cx="65.3023256" cy="44.3875" rx="5.86046512" ry="5.8625"></ellipse>
                        <ellipse id="Oval-3" fill="#FFFFFF" cx="65.3023256" cy="44.3875" rx="2.51162791" ry="2.5125"></ellipse>
                        <ellipse id="Oval-3-Copy" fill="#D6DCE4" cx="102.55814" cy="44.3875" rx="2.51162791" ry="2.5125"></ellipse>
                        <rect id="Rectangle-2" fill="#FFD382" x="28.0465116" y="0" width="7.95348837" height="4.1875" rx="2.09375"></rect>
                        <rect id="Rectangle-2-Copy" fill="#ECD1B5" x="71.1627907" y="0" width="15.4883721" height="4.1875" rx="2.09375"></rect>
                    </g>
                </g>
                <path d="M87,179.433962 C88.8461538,183.031447 91.6153846,184.503145 95.3076923,183.849057 C99,183.194969 99.9230769,180.578616 98.0769231,176 L87,179.433962 Z" id="Path-16" fill="#FFD382" transform="translate(93.000000, 180.000000) rotate(-76.000000) translate(-93.000000, -180.000000) "></path>
                <path d="M60.6868048,156 C58.4685316,156 56.8340144,154.80174 55.7832534,152.405221 C54.2071119,148.810441 55.1502752,141.62499 57.3593949,138.026103 C58.8774302,135.553065 63.1946166,134.507843 66.8162441,132.034804 C70.4378715,129.561766 69.6182734,126.043505 74.5218248,127.241765 C79.4253762,128.440025 75.7477127,139.224363 74.5218248,146.413922 C73.7045663,151.206961 69.0928929,154.40232 60.6868048,156 Z" id="Path-21" fill="#FF7F58"></path>
                <ellipse id="Oval" fill="#FFD382" cx="59" cy="148" rx="2" ry="3"></ellipse>
                <ellipse id="Oval-9" fill="#FFD382" cx="67" cy="148.5" rx="9" ry="11.5"></ellipse>
                <path d="M74.3537755,154.388026 C67.9537755,167.877203 65.8204422,181.54387 67.9537755,195.388026 L79.1537755,191.128285 C77.7315533,179.059021 77.3759977,170.71703 78.0871088,166.102311 C79.1537755,159.180234 82.5158186,159.605313 80.6943342,156.433304 C79.4800112,154.318631 77.3664917,153.636871 74.3537755,154.388026 Z" id="Path-15" fill="#749CEA" transform="translate(74.189632, 174.740363) rotate(-76.000000) translate(-74.189632, -174.740363) "></path>
                <path d="M70,241.25 C80.4,238.75 86.4,240 88,245 L70,245 L70,241.25 Z" id="Path-20" fill="#D9A673"></path>
                <path d="M61,241.25 C71.4,238.75 77.4,240 79,245 L61,245 L61,241.25 Z" id="Path-20-Copy" fill="#D9A673"></path>
                <rect id="Rectangle-28-Copy" fill="#868C99" x="33" y="245" width="254" height="5" rx="2.5"></rect>
            </g>
        </g>
    </g>
</svg>