<?xml version="1.0" encoding="UTF-8"?>
<svg width="312px" height="312px" viewBox="0 0 312 312" version="1.1" xmlns="http://www.w3.org/2000/svg" xmlns:xlink="http://www.w3.org/1999/xlink">
    <!-- Generator: Sketch 45.1 (43504) - http://www.bohemiancoding.com/sketch -->
    <title>IMG-explicacion-3</title>
    <desc>Created with Sketch.</desc>
    <defs>
        <path d="M0.894839338,10.1036243 C4.45639893,42.1576606 -1.40673154,66.4202664 38.8848083,94.3938679 C67.377285,75.3988834 80.4363368,47.6978644 78.0619638,11.2908108 C61.4566791,9.32323597 48.7933561,5.76167638 40.0719948,0.606132075 C25.0342988,7.72925125 11.9752469,10.895082 0.894839338,10.1036243 Z" id="path-1"></path>
    </defs>
    <g id="Assets" stroke="none" stroke-width="1" fill="none" fill-rule="evenodd">
        <g transform="translate(-786.000000, -393.000000)" id="Group-14">
            <g transform="translate(786.000000, 393.000000)">
                <g id="Group-6">
                    <g id="Group-21" transform="translate(81.890691, 119.008055) rotate(-11.000000) translate(-81.890691, -119.008055) translate(37.390691, 65.508055)">
                        <path d="M0.615384615,11.004717 C4.66255443,47.4292453 -2,75 43.7851959,106.787736 C76.1625544,85.2028302 91.0021771,53.7248428 88.3040639,12.3537736 C69.434688,10.1179245 55.0447508,6.07075472 45.1342525,0.212264151 C28.0462022,8.30660377 13.2065796,11.9040881 0.615384615,11.004717 Z" id="Path-27" fill="#D6DCE4"></path>
                        <g id="Path-28" transform="translate(5.000000, 6.000000)">
                            <mask id="mask-2" fill="white">
                                <use xlink:href="#path-1"></use>
                            </mask>
                            <use id="Mask" fill="#749CEA" xlink:href="#path-1"></use>
                            <path d="M9,11 C6.33333333,43.6666667 23,68 59,84 L39,94 L26,88 L10,70 L-3,48 L-6,29 L-4,15 L-4,9 L7,10 L9,11 Z" fill-opacity="0.160184556" fill="#FFFFFF" mask="url(#mask-2)"></path>
                        </g>
                    </g>
                    <path d="M179.84613,70.4368622 L176.271835,72.0709142 L176.271835,72.0709142 C175.267267,72.5301703 174.080603,72.0881074 173.621347,71.083539 C173.379923,70.5554524 173.379923,69.9485121 173.621347,69.4204255 L175.255399,65.8461304 L173.621347,62.2718353 L173.621347,62.2718353 C173.162091,61.267267 173.604153,60.0806028 174.608722,59.6213466 C175.136808,59.3799225 175.743749,59.3799225 176.271835,59.6213466 L179.84613,61.2553986 L183.420425,59.6213466 L183.420425,59.6213466 C184.424994,59.1620905 185.611658,59.6041534 186.070914,60.6087218 C186.312338,61.1368084 186.312338,61.7437487 186.070914,62.2718353 L184.436862,65.8461304 L186.070914,69.4204255 L186.070914,69.4204255 C186.53017,70.4249938 186.088107,71.611658 185.083539,72.0709142 C184.555452,72.3123383 183.948512,72.3123383 183.420425,72.0709142 L179.84613,70.4368622 Z" id="Star" fill="#FFE56F" transform="translate(179.846130, 65.846130) rotate(15.000000) translate(-179.846130, -65.846130) "></path>
                    <path d="M279.923994,192.514726 L276.349699,194.148778 L276.349699,194.148778 C275.345131,194.608034 274.158467,194.165971 273.69921,193.161403 C273.457786,192.633316 273.457786,192.026376 273.69921,191.498289 L275.333262,187.923994 L273.69921,184.349699 L273.69921,184.349699 C273.239954,183.345131 273.682017,182.158467 274.686586,181.69921 C275.214672,181.457786 275.821613,181.457786 276.349699,181.69921 L279.923994,183.333262 L283.498289,181.69921 L283.498289,181.69921 C284.502858,181.239954 285.689522,181.682017 286.148778,182.686586 C286.390202,183.214672 286.390202,183.821613 286.148778,184.349699 L284.514726,187.923994 L286.148778,191.498289 L286.148778,191.498289 C286.608034,192.502858 286.165971,193.689522 285.161403,194.148778 C284.633316,194.390202 284.026376,194.390202 283.498289,194.148778 L279.923994,192.514726 Z" id="Star-Copy" fill="#FFE56F" transform="translate(279.923994, 187.923994) rotate(74.000000) translate(-279.923994, -187.923994) "></path>
                    <path d="M43.9239942,208.514726 L40.3496991,210.148778 L40.3496991,210.148778 C39.3451308,210.608034 38.1584666,210.165971 37.6992104,209.161403 C37.4577863,208.633316 37.4577863,208.026376 37.6992104,207.498289 L39.3332624,203.923994 L37.6992104,200.349699 L37.6992104,200.349699 C37.2399543,199.345131 37.6820172,198.158467 38.6865856,197.69921 C39.2146722,197.457786 39.8216125,197.457786 40.3496991,197.69921 L43.9239942,199.333262 L47.4982893,197.69921 L47.4982893,197.69921 C48.5028576,197.239954 49.6895218,197.682017 50.148778,198.686586 C50.3902021,199.214672 50.3902021,199.821613 50.148778,200.349699 L48.514726,203.923994 L50.148778,207.498289 L50.148778,207.498289 C50.6080341,208.502858 50.1659712,209.689522 49.1614028,210.148778 C48.6333162,210.390202 48.0263759,210.390202 47.4982893,210.148778 L43.9239942,208.514726 Z" id="Star-Copy-2" fill="#FFE56F" transform="translate(43.923994, 203.923994) rotate(24.000000) translate(-43.923994, -203.923994) "></path>
                    <rect id="Rectangle-28-Copy-2" fill="#868C99" x="17" y="249" width="278" height="5" rx="2.5"></rect>
                    <g id="Group-20" transform="translate(110.000000, 109.000000)">
                        <path d="M81,15 C93.1111111,22.1764706 100.777778,25.7647059 104,25.7647059 L95.5416667,34 L75,16.3529412 L81,15 Z" id="Path-30" fill="#749CEA"></path>
                        <g id="Group-10-Copy-2" transform="translate(106.500000, 108.500000) scale(-1, 1) translate(-106.500000, -108.500000) translate(88.000000, 77.000000)">
                            <path d="M4.77419355,2.42307692 L15.8270798,59.3653846 L26.4465195,59.3653846 C28.4615703,43.9412126 29.906392,32.7474256 30.7809847,25.7840237 C31.6555775,18.8206217 32.1371847,11.0336395 32.2258065,2.42307692 L4.77419355,2.42307692 Z" id="Path-14-Copy" fill="#606878"></path>
                            <path d="M0,0 L3.89159593,59.3653846 L14.5110357,59.3653846 C16.5260864,43.9412126 17.9709081,32.7474256 18.8455008,25.7840237 C19.7200936,18.8206217 20.2017008,11.0336395 20.2903226,2.42307692 L0,0 Z" id="Path-14" fill="#525763"></path>
                            <path d="M15.516129,58.4567308 C27.9290323,55.4278846 35.0903226,56.9423077 37,63 L15.516129,63 L15.516129,58.4567308 Z" id="Path-20" fill="#D9A673"></path>
                            <path d="M4.77419355,58.4567308 C17.1870968,55.4278846 24.3483871,56.9423077 26.2580645,63 L4.77419355,63 L4.77419355,58.4567308 Z" id="Path-20-Copy" fill="#D9A673"></path>
                        </g>
                        <g id="Group-22" transform="translate(0.000000, 16.000000)">
                            <ellipse id="Oval-12" fill="#E2CA5C" cx="63" cy="62.5" rx="63" ry="62.5"></ellipse>
                            <ellipse id="Oval-12" fill="#FFE56F" cx="63.5" cy="63" rx="57.5" ry="57"></ellipse>
                            <path d="M64,13 C35.8334778,13 13,35.6096201 13,63.5" id="Oval-12" stroke="#FFFFFF" stroke-width="4" fill="#FFE56F" stroke-linecap="round" stroke-linejoin="round"></path>
                            <path d="M79.7621215,73.3103978 C79.7621215,71.1601436 78.0079669,69.405989 75.8577127,69.405989 C74.5562431,69.405989 73.5942873,69.9718453 72.9152597,70.7640442 C70.9347624,73.0274696 69.1240221,74.215768 66.2947403,74.215768 C62.6732597,74.215768 60.0703204,72.348442 58.6556796,69.0098895 L66.6342541,69.0098895 C68.2186519,69.0098895 69.5201215,67.7650055 69.5201215,66.1806077 C69.5201215,64.5962099 68.2186519,63.2947403 66.6342541,63.2947403 L57.4107956,63.2947403 C57.3542099,62.728884 57.3542099,62.106442 57.3542099,61.4274144 C57.3542099,60.7483867 57.3542099,60.0693591 57.4107956,59.4469171 L66.6342541,59.4469171 C68.2186519,59.4469171 69.5201215,58.2020331 69.5201215,56.6176354 C69.5201215,55.0332376 68.2186519,53.731768 66.6342541,53.731768 L58.7688508,53.731768 C60.1834917,50.619558 62.616674,48.752232 65.9552265,48.752232 C68.7279227,48.752232 70.6518343,49.8839448 72.4625746,51.9210276 C73.0284309,52.5434696 73.9903867,53.2224972 75.4616133,53.2224972 C77.7250387,53.2224972 79.6489503,51.4117569 79.6489503,49.1483315 C79.6489503,47.8468619 79.0265083,46.7717348 78.4606519,46.2058785 C75.5181989,43.0936685 72.0098895,41 66.1249834,41 C57.7503094,41 51.9785746,46.2624641 49.6585635,53.731768 L46.8858674,53.731768 C45.3014696,53.731768 44,55.0332376 44,56.6176354 C44,58.2020331 45.3014696,59.4469171 46.8858674,59.4469171 L48.5834365,59.4469171 C48.5268508,60.1259448 48.5268508,60.861558 48.5268508,61.5405856 C48.5268508,62.1630276 48.5268508,62.728884 48.5834365,63.2947403 L46.8858674,63.2947403 C45.3014696,63.2947403 44,64.5962099 44,66.1806077 C44,67.7650055 45.3014696,69.0098895 46.8858674,69.0098895 L49.4888066,69.0098895 C51.752232,76.7621215 57.6371381,81.968 66.2947403,81.968 C72.0098895,81.968 75.8011271,79.5914033 78.913337,75.8001657 C79.3094365,75.290895 79.7621215,74.3289392 79.7621215,73.3103978 Z" id="€" fill="#E3CD5E"></path>
                        </g>
                        <ellipse id="Oval-4" fill="#FFD382" cx="102" cy="63" rx="7" ry="8"></ellipse>
                        <path d="M107,57 L105,73 C122.333333,75 130.666667,71.6666667 130,63 C129,50 121.868081,32.3291139 113.434041,31.1329114 C107.811347,30.335443 107.008105,33.1265823 111.024315,39.5063291 C116.647009,48.278481 119.458355,53.4620253 119.458355,55.056962 C119.458355,56.6518987 115.30557,57.2995781 107,57 Z" id="Path-29" fill="#749CEA"></path>
                        <g id="Group-19" transform="translate(111.500000, 20.000000) scale(-1, 1) translate(-111.500000, -20.000000) translate(98.000000, 0.000000)">
                            <path d="M6.97926046,35.1515152 C4.25683419,35.1515152 2.25083589,33.699079 0.961265557,30.7942068 C-0.973089947,26.4368985 0.184428679,17.7272611 2.89562106,13.3649735 C4.75866435,10.3673512 10.0570295,9.10041522 14.5017541,6.10279293 C18.9464787,3.10517065 17.9406083,-1.15938762 23.9586032,0.293048491 C29.9765981,1.7454846 25.4631019,14.8174096 23.9586032,23.5320263 C22.9556041,29.3417707 17.2958231,33.2149337 6.97926046,35.1515152 Z" id="Path-21" fill="#FF7F58"></path>
                            <ellipse id="Oval" fill="#FFD382" cx="4.90909091" cy="25.4545455" rx="2.45454545" ry="3.63636364"></ellipse>
                            <ellipse id="Oval-9" fill="#FFD382" cx="14.7272727" cy="26.0606061" rx="11.0454545" ry="13.9393939"></ellipse>
                        </g>
                        <path d="M76.8886905,26 C80.8161583,26 84,22.5078924 84,18.2001593 C84,13.8924262 78.4457218,14.000245 74.518254,14.000245 C72.4132775,14.000245 67.5237885,14.806005 66.2217263,16.400196 C64.9196641,17.9943871 69.777381,16.2012108 69.777381,18.2001593 C69.777381,22.5078924 72.9612227,26 76.8886905,26 Z" id="Oval-4-Copy" fill="#FFD382"></path>
                    </g>
                </g>
            </g>
        </g>
    </g>
</svg>