<?xml version="1.0" encoding="UTF-8"?>
<svg width="29px" height="40px" viewBox="0 0 29 40" version="1.1" xmlns="http://www.w3.org/2000/svg" xmlns:xlink="http://www.w3.org/1999/xlink">
    <!-- Generator: Sketch 47.1 (45422) - http://www.bohemiancoding.com/sketch -->
    <title>Group 2</title>
    <desc>Created with Sketch.</desc>
    <defs></defs>
    <g id="Checkout" stroke="none" stroke-width="1" fill="none" fill-rule="evenodd">
        <g id="Checkout/Desktop/Paso-2-envio-tienda" transform="translate(-954.000000, -538.000000)">
            <g id="UI/component/Block/Resumen-del-carrito/Tipo-A-Copy-3" transform="translate(933.000000, 228.000000)">
                <g id="Group" transform="translate(0.000000, 294.000000)">
                    <g id="Group-2" transform="translate(21.000000, 16.000000)">
                        <path d="M3.01067419,11 C3.27245237,4.88069188 8.31625285,0 14.5,0 C20.6837471,0 25.7275476,4.88069188 25.9893258,11 L27,11 C28.1045695,11 29,11.8954305 29,13 L29,38 L29,38 C29,39.1045695 28.1045695,40 27,40 L2,40 L2,40 C0.8954305,40 1.3527075e-16,39.1045695 0,38 L0,13 C-1.3527075e-16,11.8954305 0.8954305,11 2,11 L2,11 L3.01067419,11 Z M7.01640228,11 L21.9835977,11 C21.7263047,7.09098409 18.4741213,4 14.5,4 C10.5258787,4 7.27369532,7.09098409 7.01640228,11 Z" id="Combined-Shape" fill="#A3ACBD"></path>
                        <path d="M11.7044058,23.6955267 C10.9211217,22.9341252 10.434509,21.8691279 10.434509,20.6904762 C10.434509,18.3761401 12.3106491,16.5 14.6249852,16.5 C16.9393213,16.5 18.8154614,18.3761401 18.8154614,20.6904762 C18.8154614,21.834716 18.3568482,22.871841 17.6134075,23.6280655 L20.3772714,32.5 L9.67260424,32.5 L11.7044058,23.6955267 Z" id="Combined-Shape" fill="#525763"></path>
                    </g>
                </g>
            </g>
        </g>
    </g>
</svg>